<mxfile host="Electron" modified="2024-01-07T04:03:02.712Z" agent="Mozilla/5.0 (Windows NT 10.0; Win64; x64) AppleWebKit/537.36 (KHTML, like Gecko) draw.io/22.1.16 Chrome/120.0.6099.109 Electron/28.1.0 Safari/537.36" etag="HL1efMi8CukDOzhQ72s5" version="22.1.16" type="device">
  <diagram name="Page-1" id="nZQKi7UJ11sSgHiRh12A">
    <mxGraphModel dx="814" dy="559" grid="1" gridSize="10" guides="1" tooltips="1" connect="1" arrows="1" fold="1" page="1" pageScale="1" pageWidth="850" pageHeight="1100" math="0" shadow="0">
      <root>
        <mxCell id="0" />
        <mxCell id="1" parent="0" />
        <mxCell id="AO6BtqNN17s9clnaOmh2-70" value="A" style="rounded=0;whiteSpace=wrap;html=1;fontFamily=consolas;fillColor=#fad7ac;strokeColor=#b46504;" parent="1" vertex="1">
          <mxGeometry x="10" y="40" width="20" height="20" as="geometry" />
        </mxCell>
        <mxCell id="AO6BtqNN17s9clnaOmh2-71" value="l" style="rounded=0;whiteSpace=wrap;html=1;fontFamily=consolas;fillColor=#fad7ac;strokeColor=#b46504;" parent="1" vertex="1">
          <mxGeometry x="30" y="40" width="20" height="20" as="geometry" />
        </mxCell>
        <mxCell id="AO6BtqNN17s9clnaOmh2-72" value="e" style="rounded=0;whiteSpace=wrap;html=1;fontFamily=consolas;fillColor=#fad7ac;strokeColor=#b46504;" parent="1" vertex="1">
          <mxGeometry x="50" y="40" width="20" height="20" as="geometry" />
        </mxCell>
        <mxCell id="AO6BtqNN17s9clnaOmh2-73" value="x" style="rounded=0;whiteSpace=wrap;html=1;fontFamily=consolas;fillColor=#fad7ac;strokeColor=#b46504;" parent="1" vertex="1">
          <mxGeometry x="70" y="40" width="20" height="20" as="geometry" />
        </mxCell>
        <mxCell id="AO6BtqNN17s9clnaOmh2-74" value="a" style="rounded=0;whiteSpace=wrap;html=1;fontFamily=consolas;fillColor=#fad7ac;strokeColor=#b46504;" parent="1" vertex="1">
          <mxGeometry x="90" y="40" width="20" height="20" as="geometry" />
        </mxCell>
        <mxCell id="AO6BtqNN17s9clnaOmh2-75" value="n" style="rounded=0;whiteSpace=wrap;html=1;fontFamily=consolas;fillColor=#fad7ac;strokeColor=#b46504;" parent="1" vertex="1">
          <mxGeometry x="110" y="40" width="20" height="20" as="geometry" />
        </mxCell>
        <mxCell id="AO6BtqNN17s9clnaOmh2-76" value="d" style="rounded=0;whiteSpace=wrap;html=1;fontFamily=consolas;fillColor=#fad7ac;strokeColor=#b46504;" parent="1" vertex="1">
          <mxGeometry x="130" y="40" width="20" height="20" as="geometry" />
        </mxCell>
        <mxCell id="AO6BtqNN17s9clnaOmh2-77" value="e" style="rounded=0;whiteSpace=wrap;html=1;fontFamily=consolas;fillColor=#fad7ac;strokeColor=#b46504;" parent="1" vertex="1">
          <mxGeometry x="150" y="40" width="20" height="20" as="geometry" />
        </mxCell>
        <mxCell id="AO6BtqNN17s9clnaOmh2-78" value="r" style="rounded=0;whiteSpace=wrap;html=1;fontFamily=consolas;fillColor=#fad7ac;strokeColor=#b46504;" parent="1" vertex="1">
          <mxGeometry x="170" y="40" width="20" height="20" as="geometry" />
        </mxCell>
        <mxCell id="AO6BtqNN17s9clnaOmh2-79" value="&amp;nbsp;" style="rounded=0;whiteSpace=wrap;html=1;fontFamily=consolas;fillColor=#fad7ac;strokeColor=#b46504;" parent="1" vertex="1">
          <mxGeometry x="190" y="40" width="20" height="20" as="geometry" />
        </mxCell>
        <mxCell id="AO6BtqNN17s9clnaOmh2-80" value="A" style="rounded=0;whiteSpace=wrap;html=1;fontFamily=consolas;fillColor=#fad7ac;strokeColor=#b46504;" parent="1" vertex="1">
          <mxGeometry x="210" y="40" width="20" height="20" as="geometry" />
        </mxCell>
        <mxCell id="AO6BtqNN17s9clnaOmh2-81" value="l" style="rounded=0;whiteSpace=wrap;html=1;fontFamily=consolas;fillColor=#fad7ac;strokeColor=#b46504;" parent="1" vertex="1">
          <mxGeometry x="230" y="40" width="20" height="20" as="geometry" />
        </mxCell>
        <mxCell id="AO6BtqNN17s9clnaOmh2-82" value="e" style="rounded=0;whiteSpace=wrap;html=1;fontFamily=consolas;fillColor=#fad7ac;strokeColor=#b46504;" parent="1" vertex="1">
          <mxGeometry x="250" y="40" width="20" height="20" as="geometry" />
        </mxCell>
        <mxCell id="AO6BtqNN17s9clnaOmh2-83" value="x" style="rounded=0;whiteSpace=wrap;html=1;fontFamily=consolas;fillColor=#fad7ac;strokeColor=#b46504;" parent="1" vertex="1">
          <mxGeometry x="270" y="40" width="20" height="20" as="geometry" />
        </mxCell>
        <mxCell id="AO6BtqNN17s9clnaOmh2-84" value="a" style="rounded=0;whiteSpace=wrap;html=1;fontFamily=consolas;fillColor=#fad7ac;strokeColor=#b46504;" parent="1" vertex="1">
          <mxGeometry x="290" y="40" width="20" height="20" as="geometry" />
        </mxCell>
        <mxCell id="AO6BtqNN17s9clnaOmh2-85" value="n" style="rounded=0;whiteSpace=wrap;html=1;fontFamily=consolas;fillColor=#fad7ac;strokeColor=#b46504;" parent="1" vertex="1">
          <mxGeometry x="310" y="40" width="20" height="20" as="geometry" />
        </mxCell>
        <mxCell id="AO6BtqNN17s9clnaOmh2-86" value="d" style="rounded=0;whiteSpace=wrap;html=1;fontFamily=consolas;fillColor=#fad7ac;strokeColor=#b46504;" parent="1" vertex="1">
          <mxGeometry x="330" y="40" width="20" height="20" as="geometry" />
        </mxCell>
        <mxCell id="AO6BtqNN17s9clnaOmh2-87" value="r" style="rounded=0;whiteSpace=wrap;html=1;fontFamily=consolas;fillColor=#fad7ac;strokeColor=#b46504;" parent="1" vertex="1">
          <mxGeometry x="350" y="40" width="20" height="20" as="geometry" />
        </mxCell>
        <mxCell id="AO6BtqNN17s9clnaOmh2-88" value="o" style="rounded=0;whiteSpace=wrap;html=1;fontFamily=consolas;fillColor=#fad7ac;strokeColor=#b46504;" parent="1" vertex="1">
          <mxGeometry x="370" y="40" width="20" height="20" as="geometry" />
        </mxCell>
        <mxCell id="AO6BtqNN17s9clnaOmh2-89" value="v" style="rounded=0;whiteSpace=wrap;html=1;fontFamily=consolas;fillColor=#fad7ac;strokeColor=#b46504;" parent="1" vertex="1">
          <mxGeometry x="390" y="40" width="20" height="20" as="geometry" />
        </mxCell>
        <mxCell id="AO6BtqNN17s9clnaOmh2-101" value="i" style="rounded=0;whiteSpace=wrap;html=1;fontFamily=consolas;fillColor=#fad7ac;strokeColor=#b46504;" parent="1" vertex="1">
          <mxGeometry x="410" y="40" width="20" height="20" as="geometry" />
        </mxCell>
        <mxCell id="AO6BtqNN17s9clnaOmh2-102" value="c" style="rounded=0;whiteSpace=wrap;html=1;fontFamily=consolas;fillColor=#fad7ac;strokeColor=#b46504;" parent="1" vertex="1">
          <mxGeometry x="430" y="40" width="20" height="20" as="geometry" />
        </mxCell>
        <mxCell id="AO6BtqNN17s9clnaOmh2-103" value="h" style="rounded=0;whiteSpace=wrap;html=1;fontFamily=consolas;fillColor=#fad7ac;strokeColor=#b46504;" parent="1" vertex="1">
          <mxGeometry x="450" y="40" width="20" height="20" as="geometry" />
        </mxCell>
        <mxCell id="AO6BtqNN17s9clnaOmh2-104" value="&amp;nbsp;" style="rounded=0;whiteSpace=wrap;html=1;fontFamily=consolas;fillColor=#fad7ac;strokeColor=#b46504;" parent="1" vertex="1">
          <mxGeometry x="470" y="40" width="20" height="20" as="geometry" />
        </mxCell>
        <mxCell id="AO6BtqNN17s9clnaOmh2-105" value="S" style="rounded=0;whiteSpace=wrap;html=1;fontFamily=consolas;fillColor=#fad7ac;strokeColor=#b46504;" parent="1" vertex="1">
          <mxGeometry x="490" y="40" width="20" height="20" as="geometry" />
        </mxCell>
        <mxCell id="AO6BtqNN17s9clnaOmh2-106" value="t" style="rounded=0;whiteSpace=wrap;html=1;fontFamily=consolas;fillColor=#fad7ac;strokeColor=#b46504;" parent="1" vertex="1">
          <mxGeometry x="510" y="40" width="20" height="20" as="geometry" />
        </mxCell>
        <mxCell id="AO6BtqNN17s9clnaOmh2-107" value="e" style="rounded=0;whiteSpace=wrap;html=1;fontFamily=consolas;fillColor=#fad7ac;strokeColor=#b46504;" parent="1" vertex="1">
          <mxGeometry x="530" y="40" width="20" height="20" as="geometry" />
        </mxCell>
        <mxCell id="AO6BtqNN17s9clnaOmh2-108" value="p" style="rounded=0;whiteSpace=wrap;html=1;fontFamily=consolas;fillColor=#fad7ac;strokeColor=#b46504;" parent="1" vertex="1">
          <mxGeometry x="550" y="40" width="20" height="20" as="geometry" />
        </mxCell>
        <mxCell id="AO6BtqNN17s9clnaOmh2-109" value="a" style="rounded=0;whiteSpace=wrap;html=1;fontFamily=consolas;fillColor=#fad7ac;strokeColor=#b46504;" parent="1" vertex="1">
          <mxGeometry x="570" y="40" width="20" height="20" as="geometry" />
        </mxCell>
        <mxCell id="AO6BtqNN17s9clnaOmh2-110" value="n" style="rounded=0;whiteSpace=wrap;html=1;fontFamily=consolas;fillColor=#fad7ac;strokeColor=#b46504;" parent="1" vertex="1">
          <mxGeometry x="590" y="40" width="20" height="20" as="geometry" />
        </mxCell>
        <mxCell id="AO6BtqNN17s9clnaOmh2-112" value="D" style="rounded=0;whiteSpace=wrap;html=1;fontFamily=consolas;fillColor=#fad7ac;strokeColor=#b46504;" parent="1" vertex="1">
          <mxGeometry x="9" y="90" width="20" height="20" as="geometry" />
        </mxCell>
        <mxCell id="AO6BtqNN17s9clnaOmh2-113" value="o" style="rounded=0;whiteSpace=wrap;html=1;fontFamily=consolas;fillColor=#fad7ac;strokeColor=#b46504;" parent="1" vertex="1">
          <mxGeometry x="29" y="90" width="20" height="20" as="geometry" />
        </mxCell>
        <mxCell id="AO6BtqNN17s9clnaOmh2-114" value="n" style="rounded=0;whiteSpace=wrap;html=1;fontFamily=consolas;fillColor=#fad7ac;strokeColor=#b46504;" parent="1" vertex="1">
          <mxGeometry x="49" y="90" width="20" height="20" as="geometry" />
        </mxCell>
        <mxCell id="AO6BtqNN17s9clnaOmh2-115" value="a" style="rounded=0;whiteSpace=wrap;html=1;fontFamily=consolas;fillColor=#fad7ac;strokeColor=#b46504;" parent="1" vertex="1">
          <mxGeometry x="69" y="90" width="20" height="20" as="geometry" />
        </mxCell>
        <mxCell id="AO6BtqNN17s9clnaOmh2-116" value="l" style="rounded=0;whiteSpace=wrap;html=1;fontFamily=consolas;fillColor=#fad7ac;strokeColor=#b46504;" parent="1" vertex="1">
          <mxGeometry x="89" y="90" width="20" height="20" as="geometry" />
        </mxCell>
        <mxCell id="AO6BtqNN17s9clnaOmh2-117" value="d" style="rounded=0;whiteSpace=wrap;html=1;fontFamily=consolas;fillColor=#fad7ac;strokeColor=#b46504;" parent="1" vertex="1">
          <mxGeometry x="109" y="90" width="20" height="20" as="geometry" />
        </mxCell>
        <mxCell id="AO6BtqNN17s9clnaOmh2-118" value="&amp;nbsp;" style="rounded=0;whiteSpace=wrap;html=1;fontFamily=consolas;fillColor=#fad7ac;strokeColor=#b46504;" parent="1" vertex="1">
          <mxGeometry x="129" y="90" width="20" height="20" as="geometry" />
        </mxCell>
        <mxCell id="AO6BtqNN17s9clnaOmh2-119" value="E" style="rounded=0;whiteSpace=wrap;html=1;fontFamily=consolas;fillColor=#fad7ac;strokeColor=#b46504;" parent="1" vertex="1">
          <mxGeometry x="149" y="90" width="20" height="20" as="geometry" />
        </mxCell>
        <mxCell id="AO6BtqNN17s9clnaOmh2-120" value="r" style="rounded=0;whiteSpace=wrap;html=1;fontFamily=consolas;fillColor=#fad7ac;strokeColor=#b46504;" parent="1" vertex="1">
          <mxGeometry x="169" y="90" width="20" height="20" as="geometry" />
        </mxCell>
        <mxCell id="AO6BtqNN17s9clnaOmh2-121" value="v" style="rounded=0;whiteSpace=wrap;html=1;fontFamily=consolas;fillColor=#fad7ac;strokeColor=#b46504;" parent="1" vertex="1">
          <mxGeometry x="189" y="90" width="20" height="20" as="geometry" />
        </mxCell>
        <mxCell id="AO6BtqNN17s9clnaOmh2-122" value="i" style="rounded=0;whiteSpace=wrap;html=1;fontFamily=consolas;fillColor=#fad7ac;strokeColor=#b46504;" parent="1" vertex="1">
          <mxGeometry x="209" y="90" width="20" height="20" as="geometry" />
        </mxCell>
        <mxCell id="AO6BtqNN17s9clnaOmh2-123" value="n" style="rounded=0;whiteSpace=wrap;html=1;fontFamily=consolas;fillColor=#fad7ac;strokeColor=#b46504;" parent="1" vertex="1">
          <mxGeometry x="229" y="90" width="20" height="20" as="geometry" />
        </mxCell>
        <mxCell id="AO6BtqNN17s9clnaOmh2-124" value="&amp;nbsp;" style="rounded=0;whiteSpace=wrap;html=1;fontFamily=consolas;fillColor=#fad7ac;strokeColor=#b46504;" parent="1" vertex="1">
          <mxGeometry x="249" y="90" width="20" height="20" as="geometry" />
        </mxCell>
        <mxCell id="AO6BtqNN17s9clnaOmh2-125" value="K" style="rounded=0;whiteSpace=wrap;html=1;fontFamily=consolas;fillColor=#fad7ac;strokeColor=#b46504;" parent="1" vertex="1">
          <mxGeometry x="269" y="90" width="20" height="20" as="geometry" />
        </mxCell>
        <mxCell id="AO6BtqNN17s9clnaOmh2-126" value="n" style="rounded=0;whiteSpace=wrap;html=1;fontFamily=consolas;fillColor=#fad7ac;strokeColor=#b46504;" parent="1" vertex="1">
          <mxGeometry x="289" y="90" width="20" height="20" as="geometry" />
        </mxCell>
        <mxCell id="AO6BtqNN17s9clnaOmh2-127" value="u" style="rounded=0;whiteSpace=wrap;html=1;fontFamily=consolas;fillColor=#fad7ac;strokeColor=#b46504;" parent="1" vertex="1">
          <mxGeometry x="309" y="90" width="20" height="20" as="geometry" />
        </mxCell>
        <mxCell id="AO6BtqNN17s9clnaOmh2-128" value="t" style="rounded=0;whiteSpace=wrap;html=1;fontFamily=consolas;fillColor=#fad7ac;strokeColor=#b46504;" parent="1" vertex="1">
          <mxGeometry x="329" y="90" width="20" height="20" as="geometry" />
        </mxCell>
        <mxCell id="AO6BtqNN17s9clnaOmh2-129" value="h" style="rounded=0;whiteSpace=wrap;html=1;fontFamily=consolas;fillColor=#fad7ac;strokeColor=#b46504;" parent="1" vertex="1">
          <mxGeometry x="349" y="90" width="20" height="20" as="geometry" />
        </mxCell>
        <mxCell id="AO6BtqNN17s9clnaOmh2-130" value="\0" style="rounded=0;whiteSpace=wrap;html=1;fontFamily=consolas;fillColor=#fad7ac;strokeColor=#b46504;" parent="1" vertex="1">
          <mxGeometry x="369" y="90" width="20" height="20" as="geometry" />
        </mxCell>
        <mxCell id="AO6BtqNN17s9clnaOmh2-131" value="v" style="rounded=0;whiteSpace=wrap;html=1;fontFamily=consolas;fillColor=#b1ddf0;strokeColor=#10739e;" parent="1" vertex="1">
          <mxGeometry x="389" y="90" width="20" height="20" as="geometry" />
        </mxCell>
        <mxCell id="AO6BtqNN17s9clnaOmh2-132" value="i" style="rounded=0;whiteSpace=wrap;html=1;fontFamily=consolas;fillColor=#b1ddf0;strokeColor=#10739e;" parent="1" vertex="1">
          <mxGeometry x="409" y="90" width="20" height="20" as="geometry" />
        </mxCell>
        <mxCell id="AO6BtqNN17s9clnaOmh2-133" value="c" style="rounded=0;whiteSpace=wrap;html=1;fontFamily=consolas;fillColor=#b1ddf0;strokeColor=#10739e;" parent="1" vertex="1">
          <mxGeometry x="429" y="90" width="20" height="20" as="geometry" />
        </mxCell>
        <mxCell id="AO6BtqNN17s9clnaOmh2-134" value="h" style="rounded=0;whiteSpace=wrap;html=1;fontFamily=consolas;fillColor=#b1ddf0;strokeColor=#10739e;" parent="1" vertex="1">
          <mxGeometry x="449" y="90" width="20" height="20" as="geometry" />
        </mxCell>
        <mxCell id="AO6BtqNN17s9clnaOmh2-135" value="&amp;nbsp;" style="rounded=0;whiteSpace=wrap;html=1;fontFamily=consolas;fillColor=#b1ddf0;strokeColor=#10739e;" parent="1" vertex="1">
          <mxGeometry x="469" y="90" width="20" height="20" as="geometry" />
        </mxCell>
        <mxCell id="AO6BtqNN17s9clnaOmh2-136" value="S" style="rounded=0;whiteSpace=wrap;html=1;fontFamily=consolas;fillColor=#b1ddf0;strokeColor=#10739e;" parent="1" vertex="1">
          <mxGeometry x="489" y="90" width="20" height="20" as="geometry" />
        </mxCell>
        <mxCell id="AO6BtqNN17s9clnaOmh2-137" value="t" style="rounded=0;whiteSpace=wrap;html=1;fontFamily=consolas;fillColor=#b1ddf0;strokeColor=#10739e;" parent="1" vertex="1">
          <mxGeometry x="509" y="90" width="20" height="20" as="geometry" />
        </mxCell>
        <mxCell id="AO6BtqNN17s9clnaOmh2-138" value="e" style="rounded=0;whiteSpace=wrap;html=1;fontFamily=consolas;fillColor=#b1ddf0;strokeColor=#10739e;" parent="1" vertex="1">
          <mxGeometry x="529" y="90" width="20" height="20" as="geometry" />
        </mxCell>
        <mxCell id="AO6BtqNN17s9clnaOmh2-139" value="p" style="rounded=0;whiteSpace=wrap;html=1;fontFamily=consolas;fillColor=#b1ddf0;strokeColor=#10739e;" parent="1" vertex="1">
          <mxGeometry x="549" y="90" width="20" height="20" as="geometry" />
        </mxCell>
        <mxCell id="AO6BtqNN17s9clnaOmh2-140" value="a" style="rounded=0;whiteSpace=wrap;html=1;fontFamily=consolas;fillColor=#b1ddf0;strokeColor=#10739e;" parent="1" vertex="1">
          <mxGeometry x="569" y="90" width="20" height="20" as="geometry" />
        </mxCell>
        <mxCell id="AO6BtqNN17s9clnaOmh2-141" value="n" style="rounded=0;whiteSpace=wrap;html=1;fontFamily=consolas;fillColor=#b1ddf0;strokeColor=#10739e;" parent="1" vertex="1">
          <mxGeometry x="589" y="90" width="20" height="20" as="geometry" />
        </mxCell>
        <mxCell id="AO6BtqNN17s9clnaOmh2-143" value="o" style="rounded=0;whiteSpace=wrap;html=1;fontFamily=consolas;fillColor=#fad7ac;strokeColor=#b46504;" parent="1" vertex="1">
          <mxGeometry x="610" y="40" width="20" height="20" as="geometry" />
        </mxCell>
        <mxCell id="AO6BtqNN17s9clnaOmh2-144" value="v" style="rounded=0;whiteSpace=wrap;html=1;fontFamily=consolas;fillColor=#fad7ac;strokeColor=#b46504;" parent="1" vertex="1">
          <mxGeometry x="630" y="40" width="20" height="20" as="geometry" />
        </mxCell>
        <mxCell id="AO6BtqNN17s9clnaOmh2-148" value="o" style="rounded=0;whiteSpace=wrap;html=1;fontFamily=consolas;fillColor=#b1ddf0;strokeColor=#10739e;" parent="1" vertex="1">
          <mxGeometry x="609" y="90" width="20" height="20" as="geometry" />
        </mxCell>
        <mxCell id="AO6BtqNN17s9clnaOmh2-149" value="v" style="rounded=0;whiteSpace=wrap;html=1;fontFamily=consolas;fillColor=#b1ddf0;strokeColor=#10739e;" parent="1" vertex="1">
          <mxGeometry x="629" y="90" width="20" height="20" as="geometry" />
        </mxCell>
        <mxCell id="AO6BtqNN17s9clnaOmh2-150" value="B" style="rounded=0;whiteSpace=wrap;html=1;fontFamily=consolas;fillColor=#fad7ac;strokeColor=#b46504;" parent="1" vertex="1">
          <mxGeometry x="10" y="190" width="20" height="20" as="geometry" />
        </mxCell>
        <mxCell id="AO6BtqNN17s9clnaOmh2-151" value="j" style="rounded=0;whiteSpace=wrap;html=1;fontFamily=consolas;fillColor=#fad7ac;strokeColor=#b46504;" parent="1" vertex="1">
          <mxGeometry x="30" y="190" width="20" height="20" as="geometry" />
        </mxCell>
        <mxCell id="AO6BtqNN17s9clnaOmh2-152" value="a" style="rounded=0;whiteSpace=wrap;html=1;fontFamily=consolas;fillColor=#fad7ac;strokeColor=#b46504;" parent="1" vertex="1">
          <mxGeometry x="50" y="190" width="20" height="20" as="geometry" />
        </mxCell>
        <mxCell id="AO6BtqNN17s9clnaOmh2-153" value="r" style="rounded=0;whiteSpace=wrap;html=1;fontFamily=consolas;fillColor=#fad7ac;strokeColor=#b46504;" parent="1" vertex="1">
          <mxGeometry x="70" y="190" width="20" height="20" as="geometry" />
        </mxCell>
        <mxCell id="AO6BtqNN17s9clnaOmh2-154" value="n" style="rounded=0;whiteSpace=wrap;html=1;fontFamily=consolas;fillColor=#fad7ac;strokeColor=#b46504;" parent="1" vertex="1">
          <mxGeometry x="90" y="190" width="20" height="20" as="geometry" />
        </mxCell>
        <mxCell id="AO6BtqNN17s9clnaOmh2-155" value="e" style="rounded=0;whiteSpace=wrap;html=1;fontFamily=consolas;fillColor=#fad7ac;strokeColor=#b46504;" parent="1" vertex="1">
          <mxGeometry x="110" y="190" width="20" height="20" as="geometry" />
        </mxCell>
        <mxCell id="AO6BtqNN17s9clnaOmh2-156" value="&amp;nbsp;" style="rounded=0;whiteSpace=wrap;html=1;fontFamily=consolas;fillColor=#fad7ac;strokeColor=#b46504;" parent="1" vertex="1">
          <mxGeometry x="130" y="190" width="20" height="20" as="geometry" />
        </mxCell>
        <mxCell id="AO6BtqNN17s9clnaOmh2-157" value="S" style="rounded=0;whiteSpace=wrap;html=1;fontFamily=consolas;fillColor=#fad7ac;strokeColor=#b46504;" parent="1" vertex="1">
          <mxGeometry x="150" y="190" width="20" height="20" as="geometry" />
        </mxCell>
        <mxCell id="AO6BtqNN17s9clnaOmh2-158" value="t" style="rounded=0;whiteSpace=wrap;html=1;fontFamily=consolas;fillColor=#fad7ac;strokeColor=#b46504;" parent="1" vertex="1">
          <mxGeometry x="170" y="190" width="20" height="20" as="geometry" />
        </mxCell>
        <mxCell id="AO6BtqNN17s9clnaOmh2-159" value="r" style="rounded=0;whiteSpace=wrap;html=1;fontFamily=consolas;fillColor=#fad7ac;strokeColor=#b46504;" parent="1" vertex="1">
          <mxGeometry x="190" y="190" width="20" height="20" as="geometry" />
        </mxCell>
        <mxCell id="AO6BtqNN17s9clnaOmh2-160" value="o" style="rounded=0;whiteSpace=wrap;html=1;fontFamily=consolas;fillColor=#fad7ac;strokeColor=#b46504;" parent="1" vertex="1">
          <mxGeometry x="210" y="190" width="20" height="20" as="geometry" />
        </mxCell>
        <mxCell id="AO6BtqNN17s9clnaOmh2-161" value="u" style="rounded=0;whiteSpace=wrap;html=1;fontFamily=consolas;fillColor=#fad7ac;strokeColor=#b46504;" parent="1" vertex="1">
          <mxGeometry x="230" y="190" width="20" height="20" as="geometry" />
        </mxCell>
        <mxCell id="AO6BtqNN17s9clnaOmh2-162" value="s" style="rounded=0;whiteSpace=wrap;html=1;fontFamily=consolas;fillColor=#fad7ac;strokeColor=#b46504;" parent="1" vertex="1">
          <mxGeometry x="250" y="190" width="20" height="20" as="geometry" />
        </mxCell>
        <mxCell id="AO6BtqNN17s9clnaOmh2-163" value="t" style="rounded=0;whiteSpace=wrap;html=1;fontFamily=consolas;fillColor=#fad7ac;strokeColor=#b46504;" parent="1" vertex="1">
          <mxGeometry x="270" y="190" width="20" height="20" as="geometry" />
        </mxCell>
        <mxCell id="AO6BtqNN17s9clnaOmh2-164" value="r" style="rounded=0;whiteSpace=wrap;html=1;fontFamily=consolas;fillColor=#fad7ac;strokeColor=#b46504;" parent="1" vertex="1">
          <mxGeometry x="290" y="190" width="20" height="20" as="geometry" />
        </mxCell>
        <mxCell id="AO6BtqNN17s9clnaOmh2-165" value="u" style="rounded=0;whiteSpace=wrap;html=1;fontFamily=consolas;fillColor=#fad7ac;strokeColor=#b46504;" parent="1" vertex="1">
          <mxGeometry x="310" y="190" width="20" height="20" as="geometry" />
        </mxCell>
        <mxCell id="AO6BtqNN17s9clnaOmh2-166" value="p" style="rounded=0;whiteSpace=wrap;html=1;fontFamily=consolas;fillColor=#fad7ac;strokeColor=#b46504;" parent="1" vertex="1">
          <mxGeometry x="330" y="190" width="20" height="20" as="geometry" />
        </mxCell>
        <mxCell id="AO6BtqNN17s9clnaOmh2-167" value="\0" style="rounded=0;whiteSpace=wrap;html=1;fontFamily=consolas;fillColor=#fad7ac;strokeColor=#b46504;" parent="1" vertex="1">
          <mxGeometry x="350" y="190" width="20" height="20" as="geometry" />
        </mxCell>
        <mxCell id="AO6BtqNN17s9clnaOmh2-168" value="n" style="rounded=0;whiteSpace=wrap;html=1;fontFamily=consolas;fillColor=#b1ddf0;strokeColor=#10739e;" parent="1" vertex="1">
          <mxGeometry x="370" y="190" width="20" height="20" as="geometry" />
        </mxCell>
        <mxCell id="AO6BtqNN17s9clnaOmh2-169" value="g" style="rounded=0;whiteSpace=wrap;html=1;fontFamily=consolas;fillColor=#b1ddf0;strokeColor=#10739e;" parent="1" vertex="1">
          <mxGeometry x="390" y="190" width="20" height="20" as="geometry" />
        </mxCell>
        <mxCell id="AO6BtqNN17s9clnaOmh2-170" value="\0" style="rounded=0;whiteSpace=wrap;html=1;fontFamily=consolas;fillColor=#b1ddf0;strokeColor=#10739e;" parent="1" vertex="1">
          <mxGeometry x="410" y="190" width="20" height="20" as="geometry" />
        </mxCell>
        <mxCell id="AO6BtqNN17s9clnaOmh2-171" value="c" style="rounded=0;whiteSpace=wrap;html=1;fontFamily=consolas;fillColor=#b1ddf0;strokeColor=#10739e;" parent="1" vertex="1">
          <mxGeometry x="430" y="190" width="20" height="20" as="geometry" />
        </mxCell>
        <mxCell id="AO6BtqNN17s9clnaOmh2-172" value="h" style="rounded=0;whiteSpace=wrap;html=1;fontFamily=consolas;fillColor=#b1ddf0;strokeColor=#10739e;" parent="1" vertex="1">
          <mxGeometry x="450" y="190" width="20" height="20" as="geometry" />
        </mxCell>
        <mxCell id="AO6BtqNN17s9clnaOmh2-173" value="&amp;nbsp;" style="rounded=0;whiteSpace=wrap;html=1;fontFamily=consolas;fillColor=#b1ddf0;strokeColor=#10739e;" parent="1" vertex="1">
          <mxGeometry x="470" y="190" width="20" height="20" as="geometry" />
        </mxCell>
        <mxCell id="AO6BtqNN17s9clnaOmh2-174" value="S" style="rounded=0;whiteSpace=wrap;html=1;fontFamily=consolas;fillColor=#b1ddf0;strokeColor=#10739e;" parent="1" vertex="1">
          <mxGeometry x="490" y="190" width="20" height="20" as="geometry" />
        </mxCell>
        <mxCell id="AO6BtqNN17s9clnaOmh2-175" value="t" style="rounded=0;whiteSpace=wrap;html=1;fontFamily=consolas;fillColor=#b1ddf0;strokeColor=#10739e;" parent="1" vertex="1">
          <mxGeometry x="510" y="190" width="20" height="20" as="geometry" />
        </mxCell>
        <mxCell id="AO6BtqNN17s9clnaOmh2-176" value="e" style="rounded=0;whiteSpace=wrap;html=1;fontFamily=consolas;fillColor=#b1ddf0;strokeColor=#10739e;" parent="1" vertex="1">
          <mxGeometry x="530" y="190" width="20" height="20" as="geometry" />
        </mxCell>
        <mxCell id="AO6BtqNN17s9clnaOmh2-177" value="p" style="rounded=0;whiteSpace=wrap;html=1;fontFamily=consolas;fillColor=#b1ddf0;strokeColor=#10739e;" parent="1" vertex="1">
          <mxGeometry x="550" y="190" width="20" height="20" as="geometry" />
        </mxCell>
        <mxCell id="AO6BtqNN17s9clnaOmh2-178" value="a" style="rounded=0;whiteSpace=wrap;html=1;fontFamily=consolas;fillColor=#b1ddf0;strokeColor=#10739e;" parent="1" vertex="1">
          <mxGeometry x="570" y="190" width="20" height="20" as="geometry" />
        </mxCell>
        <mxCell id="AO6BtqNN17s9clnaOmh2-179" value="n" style="rounded=0;whiteSpace=wrap;html=1;fontFamily=consolas;fillColor=#b1ddf0;strokeColor=#10739e;" parent="1" vertex="1">
          <mxGeometry x="590" y="190" width="20" height="20" as="geometry" />
        </mxCell>
        <mxCell id="AO6BtqNN17s9clnaOmh2-180" value="o" style="rounded=0;whiteSpace=wrap;html=1;fontFamily=consolas;fillColor=#b1ddf0;strokeColor=#10739e;" parent="1" vertex="1">
          <mxGeometry x="610" y="190" width="20" height="20" as="geometry" />
        </mxCell>
        <mxCell id="AO6BtqNN17s9clnaOmh2-181" value="v" style="rounded=0;whiteSpace=wrap;html=1;fontFamily=consolas;fillColor=#b1ddf0;strokeColor=#10739e;" parent="1" vertex="1">
          <mxGeometry x="630" y="190" width="20" height="20" as="geometry" />
        </mxCell>
        <mxCell id="AO6BtqNN17s9clnaOmh2-183" value="A" style="rounded=0;whiteSpace=wrap;html=1;fontFamily=consolas;fillColor=#fad7ac;strokeColor=#b46504;" parent="1" vertex="1">
          <mxGeometry x="10" y="140" width="20" height="20" as="geometry" />
        </mxCell>
        <mxCell id="AO6BtqNN17s9clnaOmh2-184" value="l" style="rounded=0;whiteSpace=wrap;html=1;fontFamily=consolas;fillColor=#fad7ac;strokeColor=#b46504;" parent="1" vertex="1">
          <mxGeometry x="30" y="140" width="20" height="20" as="geometry" />
        </mxCell>
        <mxCell id="AO6BtqNN17s9clnaOmh2-185" value="a" style="rounded=0;whiteSpace=wrap;html=1;fontFamily=consolas;fillColor=#fad7ac;strokeColor=#b46504;" parent="1" vertex="1">
          <mxGeometry x="50" y="140" width="20" height="20" as="geometry" />
        </mxCell>
        <mxCell id="AO6BtqNN17s9clnaOmh2-186" value="n" style="rounded=0;whiteSpace=wrap;html=1;fontFamily=consolas;fillColor=#fad7ac;strokeColor=#b46504;" parent="1" vertex="1">
          <mxGeometry x="70" y="140" width="20" height="20" as="geometry" />
        </mxCell>
        <mxCell id="AO6BtqNN17s9clnaOmh2-187" value="&amp;nbsp;" style="rounded=0;whiteSpace=wrap;html=1;fontFamily=consolas;fillColor=#fad7ac;strokeColor=#b46504;" parent="1" vertex="1">
          <mxGeometry x="90" y="140" width="20" height="20" as="geometry" />
        </mxCell>
        <mxCell id="AO6BtqNN17s9clnaOmh2-188" value="M" style="rounded=0;whiteSpace=wrap;html=1;fontFamily=consolas;fillColor=#fad7ac;strokeColor=#b46504;" parent="1" vertex="1">
          <mxGeometry x="110" y="140" width="20" height="20" as="geometry" />
        </mxCell>
        <mxCell id="AO6BtqNN17s9clnaOmh2-189" value="a" style="rounded=0;whiteSpace=wrap;html=1;fontFamily=consolas;fillColor=#fad7ac;strokeColor=#b46504;" parent="1" vertex="1">
          <mxGeometry x="130" y="140" width="20" height="20" as="geometry" />
        </mxCell>
        <mxCell id="AO6BtqNN17s9clnaOmh2-190" value="t" style="rounded=0;whiteSpace=wrap;html=1;fontFamily=consolas;fillColor=#fad7ac;strokeColor=#b46504;" parent="1" vertex="1">
          <mxGeometry x="150" y="140" width="20" height="20" as="geometry" />
        </mxCell>
        <mxCell id="AO6BtqNN17s9clnaOmh2-191" value="h" style="rounded=0;whiteSpace=wrap;html=1;fontFamily=consolas;fillColor=#fad7ac;strokeColor=#b46504;" parent="1" vertex="1">
          <mxGeometry x="170" y="140" width="20" height="20" as="geometry" />
        </mxCell>
        <mxCell id="AO6BtqNN17s9clnaOmh2-192" value="i" style="rounded=0;whiteSpace=wrap;html=1;fontFamily=consolas;fillColor=#fad7ac;strokeColor=#b46504;" parent="1" vertex="1">
          <mxGeometry x="190" y="140" width="20" height="20" as="geometry" />
        </mxCell>
        <mxCell id="AO6BtqNN17s9clnaOmh2-193" value="s" style="rounded=0;whiteSpace=wrap;html=1;fontFamily=consolas;fillColor=#fad7ac;strokeColor=#b46504;" parent="1" vertex="1">
          <mxGeometry x="210" y="140" width="20" height="20" as="geometry" />
        </mxCell>
        <mxCell id="AO6BtqNN17s9clnaOmh2-194" value="o" style="rounded=0;whiteSpace=wrap;html=1;fontFamily=consolas;fillColor=#fad7ac;strokeColor=#b46504;" parent="1" vertex="1">
          <mxGeometry x="230" y="140" width="20" height="20" as="geometry" />
        </mxCell>
        <mxCell id="AO6BtqNN17s9clnaOmh2-195" value="n" style="rounded=0;whiteSpace=wrap;html=1;fontFamily=consolas;fillColor=#fad7ac;strokeColor=#b46504;" parent="1" vertex="1">
          <mxGeometry x="250" y="140" width="20" height="20" as="geometry" />
        </mxCell>
        <mxCell id="AO6BtqNN17s9clnaOmh2-196" value="&amp;nbsp;" style="rounded=0;whiteSpace=wrap;html=1;fontFamily=consolas;fillColor=#fad7ac;strokeColor=#b46504;" parent="1" vertex="1">
          <mxGeometry x="270" y="140" width="20" height="20" as="geometry" />
        </mxCell>
        <mxCell id="AO6BtqNN17s9clnaOmh2-197" value="T" style="rounded=0;whiteSpace=wrap;html=1;fontFamily=consolas;fillColor=#fad7ac;strokeColor=#b46504;" parent="1" vertex="1">
          <mxGeometry x="290" y="140" width="20" height="20" as="geometry" />
        </mxCell>
        <mxCell id="AO6BtqNN17s9clnaOmh2-198" value="u" style="rounded=0;whiteSpace=wrap;html=1;fontFamily=consolas;fillColor=#fad7ac;strokeColor=#b46504;" parent="1" vertex="1">
          <mxGeometry x="310" y="140" width="20" height="20" as="geometry" />
        </mxCell>
        <mxCell id="AO6BtqNN17s9clnaOmh2-199" value="r" style="rounded=0;whiteSpace=wrap;html=1;fontFamily=consolas;fillColor=#fad7ac;strokeColor=#b46504;" parent="1" vertex="1">
          <mxGeometry x="330" y="140" width="20" height="20" as="geometry" />
        </mxCell>
        <mxCell id="AO6BtqNN17s9clnaOmh2-200" value="i" style="rounded=0;whiteSpace=wrap;html=1;fontFamily=consolas;fillColor=#fad7ac;strokeColor=#b46504;" parent="1" vertex="1">
          <mxGeometry x="350" y="140" width="20" height="20" as="geometry" />
        </mxCell>
        <mxCell id="AO6BtqNN17s9clnaOmh2-201" value="n" style="rounded=0;whiteSpace=wrap;html=1;fontFamily=consolas;fillColor=#fad7ac;strokeColor=#b46504;" parent="1" vertex="1">
          <mxGeometry x="370" y="140" width="20" height="20" as="geometry" />
        </mxCell>
        <mxCell id="AO6BtqNN17s9clnaOmh2-202" value="g" style="rounded=0;whiteSpace=wrap;html=1;fontFamily=consolas;fillColor=#fad7ac;strokeColor=#b46504;" parent="1" vertex="1">
          <mxGeometry x="390" y="140" width="20" height="20" as="geometry" />
        </mxCell>
        <mxCell id="AO6BtqNN17s9clnaOmh2-203" value="\0" style="rounded=0;whiteSpace=wrap;html=1;fontFamily=consolas;fillColor=#fad7ac;strokeColor=#b46504;" parent="1" vertex="1">
          <mxGeometry x="410" y="140" width="20" height="20" as="geometry" />
        </mxCell>
        <mxCell id="AO6BtqNN17s9clnaOmh2-204" value="c" style="rounded=0;whiteSpace=wrap;html=1;fontFamily=consolas;fillColor=#b1ddf0;strokeColor=#10739e;" parent="1" vertex="1">
          <mxGeometry x="430" y="140" width="20" height="20" as="geometry" />
        </mxCell>
        <mxCell id="AO6BtqNN17s9clnaOmh2-205" value="h" style="rounded=0;whiteSpace=wrap;html=1;fontFamily=consolas;fillColor=#b1ddf0;strokeColor=#10739e;" parent="1" vertex="1">
          <mxGeometry x="450" y="140" width="20" height="20" as="geometry" />
        </mxCell>
        <mxCell id="AO6BtqNN17s9clnaOmh2-206" value="&amp;nbsp;" style="rounded=0;whiteSpace=wrap;html=1;fontFamily=consolas;fillColor=#b1ddf0;strokeColor=#10739e;" parent="1" vertex="1">
          <mxGeometry x="470" y="140" width="20" height="20" as="geometry" />
        </mxCell>
        <mxCell id="AO6BtqNN17s9clnaOmh2-207" value="S" style="rounded=0;whiteSpace=wrap;html=1;fontFamily=consolas;fillColor=#b1ddf0;strokeColor=#10739e;" parent="1" vertex="1">
          <mxGeometry x="490" y="140" width="20" height="20" as="geometry" />
        </mxCell>
        <mxCell id="AO6BtqNN17s9clnaOmh2-208" value="t" style="rounded=0;whiteSpace=wrap;html=1;fontFamily=consolas;fillColor=#b1ddf0;strokeColor=#10739e;" parent="1" vertex="1">
          <mxGeometry x="510" y="140" width="20" height="20" as="geometry" />
        </mxCell>
        <mxCell id="AO6BtqNN17s9clnaOmh2-209" value="e" style="rounded=0;whiteSpace=wrap;html=1;fontFamily=consolas;fillColor=#b1ddf0;strokeColor=#10739e;" parent="1" vertex="1">
          <mxGeometry x="530" y="140" width="20" height="20" as="geometry" />
        </mxCell>
        <mxCell id="AO6BtqNN17s9clnaOmh2-210" value="p" style="rounded=0;whiteSpace=wrap;html=1;fontFamily=consolas;fillColor=#b1ddf0;strokeColor=#10739e;" parent="1" vertex="1">
          <mxGeometry x="550" y="140" width="20" height="20" as="geometry" />
        </mxCell>
        <mxCell id="AO6BtqNN17s9clnaOmh2-211" value="a" style="rounded=0;whiteSpace=wrap;html=1;fontFamily=consolas;fillColor=#b1ddf0;strokeColor=#10739e;" parent="1" vertex="1">
          <mxGeometry x="570" y="140" width="20" height="20" as="geometry" />
        </mxCell>
        <mxCell id="AO6BtqNN17s9clnaOmh2-212" value="n" style="rounded=0;whiteSpace=wrap;html=1;fontFamily=consolas;fillColor=#b1ddf0;strokeColor=#10739e;" parent="1" vertex="1">
          <mxGeometry x="590" y="140" width="20" height="20" as="geometry" />
        </mxCell>
        <mxCell id="AO6BtqNN17s9clnaOmh2-213" value="o" style="rounded=0;whiteSpace=wrap;html=1;fontFamily=consolas;fillColor=#b1ddf0;strokeColor=#10739e;" parent="1" vertex="1">
          <mxGeometry x="610" y="140" width="20" height="20" as="geometry" />
        </mxCell>
        <mxCell id="AO6BtqNN17s9clnaOmh2-214" value="v" style="rounded=0;whiteSpace=wrap;html=1;fontFamily=consolas;fillColor=#b1ddf0;strokeColor=#10739e;" parent="1" vertex="1">
          <mxGeometry x="630" y="140" width="20" height="20" as="geometry" />
        </mxCell>
        <mxCell id="osX6IA2h_siDYXLlmoUd-1" value="" style="shape=flexArrow;endArrow=classic;html=1;rounded=0;fillColor=#F5F5F5;gradientColor=#b3b3b3;strokeColor=#666666;" parent="1" edge="1">
          <mxGeometry width="50" height="50" relative="1" as="geometry">
            <mxPoint x="690" y="40" as="sourcePoint" />
            <mxPoint x="690" y="210" as="targetPoint" />
          </mxGeometry>
        </mxCell>
        <mxCell id="TTsUjaZgd6t3q5SX1iFm-1" value="\0" style="rounded=0;whiteSpace=wrap;html=1;fontFamily=consolas;fillColor=#fad7ac;strokeColor=#b46504;" vertex="1" parent="1">
          <mxGeometry x="650" y="40" width="20" height="20" as="geometry" />
        </mxCell>
        <mxCell id="TTsUjaZgd6t3q5SX1iFm-2" value="\0" style="rounded=0;whiteSpace=wrap;html=1;fontFamily=consolas;fillColor=#b1ddf0;strokeColor=#10739e;" vertex="1" parent="1">
          <mxGeometry x="649" y="90" width="20" height="20" as="geometry" />
        </mxCell>
        <mxCell id="TTsUjaZgd6t3q5SX1iFm-3" value="\0" style="rounded=0;whiteSpace=wrap;html=1;fontFamily=consolas;fillColor=#b1ddf0;strokeColor=#10739e;" vertex="1" parent="1">
          <mxGeometry x="650" y="190" width="20" height="20" as="geometry" />
        </mxCell>
        <mxCell id="TTsUjaZgd6t3q5SX1iFm-4" value="\0" style="rounded=0;whiteSpace=wrap;html=1;fontFamily=consolas;fillColor=#b1ddf0;strokeColor=#10739e;" vertex="1" parent="1">
          <mxGeometry x="650" y="140" width="20" height="20" as="geometry" />
        </mxCell>
      </root>
    </mxGraphModel>
  </diagram>
</mxfile>
